<svg id="Layer_1" xmlns="http://www.w3.org/2000/svg" xmlns:xlink="http://www.w3.org/1999/xlink" x="0px" y="0px" viewBox="0 0 261 77" xml:space="preserve" role="img" class="jss57"><style type="text/css">
	.st0{fill:#0B1B24;}
	.st1{fill:#EB3B3E;}
</style><title>University of Phoenix career with confidence logo</title><g><path class="st0" d="M257.21,58.95h-0.94v2.55h-0.63v-2.55h-0.92v-0.51h2.49V58.95L257.21,58.95z"></path><path class="st0" d="M258.61,58.44l0.78,2.21l0.78-2.21H261v3.05h-0.63v-0.84l0.06-1.44l-0.82,2.28h-0.43l-0.82-2.27l0.06,1.44 v0.84h-0.63v-3.05L258.61,58.44L258.61,58.44z"></path></g><g><path class="st0" d="M64.07,64.58c-0.09,0.98-0.45,1.74-1.08,2.29c-0.63,0.55-1.47,0.82-2.51,0.82c-0.73,0-1.38-0.17-1.93-0.52 s-0.98-0.84-1.29-1.48c-0.3-0.64-0.46-1.38-0.47-2.22v-0.86c0-0.86,0.15-1.63,0.46-2.29c0.31-0.66,0.75-1.17,1.32-1.52 c0.57-0.36,1.24-0.54,1.99-0.54c1.01,0,1.83,0.28,2.44,0.82s0.98,1.32,1.08,2.33h-1.59c-0.08-0.66-0.27-1.14-0.58-1.43 s-0.76-0.44-1.36-0.44c-0.69,0-1.22,0.25-1.6,0.76c-0.37,0.51-0.56,1.25-0.57,2.23v0.81c0,0.99,0.18,1.75,0.53,2.27 c0.36,0.52,0.88,0.78,1.56,0.78c0.62,0,1.1-0.14,1.41-0.42c0.32-0.28,0.52-0.75,0.6-1.4L64.07,64.58L64.07,64.58z"></path><path class="st0" d="M72.18,65.43h-3.55l-0.74,2.13h-1.65l3.46-9.17h1.43l3.47,9.17h-1.66L72.18,65.43z M69.07,64.14h2.66 l-1.33-3.8L69.07,64.14z"></path><path class="st0" d="M80.54,64.03h-1.77v3.53h-1.59v-9.17h3.22c1.06,0,1.87,0.24,2.45,0.71s0.86,1.16,0.86,2.06 c0,0.61-0.15,1.13-0.44,1.54c-0.3,0.42-0.71,0.73-1.24,0.96l2.06,3.82v0.08h-1.71L80.54,64.03z M78.77,62.75h1.64 c0.54,0,0.96-0.14,1.26-0.41c0.3-0.27,0.45-0.64,0.45-1.11c0-0.49-0.14-0.87-0.42-1.14c-0.28-0.27-0.7-0.41-1.25-0.42h-1.68 L78.77,62.75L78.77,62.75z"></path><path class="st0" d="M92.12,63.47h-3.77v2.82h4.4v1.27h-5.99V58.4h5.95v1.28h-4.36v2.53h3.77L92.12,63.47L92.12,63.47z"></path><path class="st0" d="M100.96,63.47H97.2v2.82h4.4v1.27h-5.99V58.4h5.95v1.28H97.2v2.53h3.77L100.96,63.47L100.96,63.47z"></path><path class="st0" d="M107.81,64.03h-1.77v3.53h-1.59v-9.17h3.22c1.06,0,1.87,0.24,2.45,0.71c0.58,0.48,0.86,1.16,0.86,2.06 c0,0.61-0.15,1.13-0.44,1.54c-0.3,0.42-0.71,0.73-1.24,0.96l2.06,3.82v0.08h-1.71L107.81,64.03z M106.04,62.75h1.64 c0.54,0,0.96-0.14,1.26-0.41c0.3-0.27,0.45-0.64,0.45-1.11c0-0.49-0.14-0.87-0.42-1.14c-0.28-0.27-0.7-0.41-1.25-0.42h-1.68 L106.04,62.75L106.04,62.75z"></path><path class="st0" d="M125.99,65.29l1.41-6.9h1.58l-2.12,9.17h-1.52l-1.74-6.69l-1.78,6.69h-1.53l-2.11-9.17h1.58l1.42,6.89 l1.75-6.89h1.34L125.99,65.29z"></path><path class="st0" d="M133.37,67.56h-1.59v-9.17h1.59V67.56z"></path><path class="st0" d="M143.32,59.68h-2.86v7.88h-1.58v-7.88h-2.83V58.4h7.27V59.68z"></path><path class="st0" d="M153.34,67.56h-1.59V63.5h-4.1v4.07h-1.59v-9.17h1.59v3.81h4.1v-3.81h1.59V67.56z"></path><path class="st0" d="M169.3,64.58c-0.09,0.98-0.45,1.74-1.08,2.29c-0.63,0.55-1.47,0.82-2.51,0.82c-0.73,0-1.38-0.17-1.93-0.52 c-0.56-0.35-0.98-0.84-1.29-1.48c-0.3-0.64-0.46-1.38-0.47-2.22v-0.86c0-0.86,0.15-1.63,0.46-2.29s0.75-1.17,1.32-1.52 c0.57-0.36,1.24-0.54,1.99-0.54c1.01,0,1.83,0.28,2.44,0.82c0.62,0.55,0.98,1.32,1.08,2.33h-1.59c-0.08-0.66-0.27-1.14-0.58-1.43 c-0.31-0.29-0.76-0.44-1.36-0.44c-0.69,0-1.22,0.25-1.6,0.76c-0.37,0.51-0.56,1.25-0.57,2.23v0.81c0,0.99,0.18,1.75,0.53,2.27 c0.36,0.52,0.88,0.78,1.56,0.78c0.62,0,1.1-0.14,1.41-0.42c0.32-0.28,0.52-0.75,0.6-1.4L169.3,64.58L169.3,64.58z"></path><path class="st0" d="M179.59,63.22c0,0.9-0.16,1.69-0.47,2.36c-0.31,0.68-0.76,1.2-1.33,1.56c-0.58,0.36-1.24,0.54-1.99,0.54 c-0.74,0-1.4-0.18-1.99-0.54c-0.58-0.36-1.03-0.88-1.35-1.55s-0.48-1.45-0.48-2.32v-0.52c0-0.9,0.16-1.68,0.48-2.37 c0.32-0.68,0.76-1.21,1.34-1.57c0.58-0.36,1.24-0.54,1.99-0.54c0.75,0,1.41,0.18,1.99,0.54c0.58,0.36,1.02,0.88,1.34,1.55 c0.32,0.68,0.48,1.46,0.48,2.35L179.59,63.22L179.59,63.22z M177.99,62.74c0-1.02-0.19-1.79-0.58-2.33 c-0.38-0.54-0.93-0.81-1.63-0.81c-0.69,0-1.23,0.27-1.62,0.81c-0.39,0.54-0.59,1.3-0.6,2.29v0.53c0,1.01,0.2,1.79,0.59,2.33 c0.39,0.55,0.94,0.82,1.63,0.82c0.7,0,1.25-0.27,1.63-0.81c0.38-0.54,0.57-1.32,0.57-2.35V62.74z"></path><path class="st0" d="M189.99,67.56h-1.59l-4.09-6.5v6.5h-1.59v-9.17h1.59l4.1,6.53v-6.53h1.58L189.99,67.56L189.99,67.56z"></path><path class="st0" d="M198.7,63.68h-3.69v3.89h-1.59V58.4h5.82v1.28h-4.23v2.73h3.69L198.7,63.68L198.7,63.68z"></path><path class="st0" d="M203.74,67.56h-1.59v-9.17h1.59V67.56z"></path><path class="st0" d="M207.24,67.56v-9.17h2.71c0.81,0,1.53,0.18,2.15,0.54c0.63,0.36,1.12,0.87,1.46,1.54s0.52,1.42,0.52,2.28v0.46 c0,0.87-0.17,1.63-0.52,2.29c-0.35,0.66-0.84,1.17-1.48,1.52c-0.64,0.36-1.38,0.54-2.2,0.54L207.24,67.56L207.24,67.56z  M208.83,59.68v6.61h1.04c0.84,0,1.48-0.26,1.92-0.78c0.45-0.52,0.68-1.27,0.68-2.25v-0.51c0-1-0.22-1.75-0.65-2.28 c-0.43-0.52-1.06-0.79-1.88-0.79H208.83z"></path><path class="st0" d="M222.57,63.47h-3.77v2.82h4.4v1.27h-5.99V58.4h5.95v1.28h-4.36v2.53h3.77V63.47z"></path><path class="st0" d="M233.32,67.56h-1.59l-4.09-6.5v6.5h-1.59v-9.17h1.59l4.1,6.53v-6.53h1.58L233.32,67.56L233.32,67.56z"></path><path class="st0" d="M243.75,64.58c-0.09,0.98-0.45,1.74-1.08,2.29c-0.63,0.55-1.47,0.82-2.51,0.82c-0.73,0-1.38-0.17-1.93-0.52 s-0.98-0.84-1.29-1.48c-0.3-0.64-0.46-1.38-0.47-2.22v-0.86c0-0.86,0.15-1.63,0.46-2.29s0.75-1.17,1.32-1.52 c0.57-0.36,1.24-0.54,1.99-0.54c1.01,0,1.83,0.28,2.44,0.82c0.62,0.55,0.98,1.32,1.08,2.33h-1.59c-0.08-0.66-0.27-1.14-0.58-1.43 s-0.76-0.44-1.36-0.44c-0.69,0-1.22,0.25-1.6,0.76c-0.37,0.51-0.56,1.25-0.57,2.23v0.81c0,0.99,0.18,1.75,0.53,2.27 c0.36,0.52,0.88,0.78,1.56,0.78c0.62,0,1.1-0.14,1.41-0.42c0.32-0.28,0.52-0.75,0.6-1.4L243.75,64.58L243.75,64.58z"></path><path class="st0" d="M252.07,63.47h-3.77v2.82h4.4v1.27h-5.99V58.4h5.95v1.28h-4.36v2.53h3.77V63.47z"></path></g><g><g><path class="st1" d="M42.06,41.84c2.84,0,5.2-2.1,5.67-4.87c0.02-0.09,0.03-0.18,0.04-0.27c0.04-0.26,0.02-0.19-0.08-0.15 c-0.05,0.02-0.18,0.08-0.26,0.11c-1.26,0.45-2.63,0.7-4.04,0.7l-14.12,0c-0.32-0.01-0.8,0.03-1.19-0.26 c-0.05-0.04-0.08-0.05-0.04,0.05c0.15,0.43,1.31,3.95,1.31,3.95c0.26,0.68,0.88,0.74,1.4,0.74L42.06,41.84z"></path></g><g><path class="st1" d="M29.86,42.6c0.05,0.16,0.72,2.08,0.72,2.08c0.53,1.54,1.92,2.61,3.57,2.61l6.05,0c2.95,0,5.39-2.27,5.72-5.2 c0.02-0.16,0.02-0.11-0.14-0.06c-1.32,0.5-2.75,0.78-4.25,0.78c0,0-9.95,0.02-10.41,0c-0.46-0.02-0.78-0.02-1.16-0.22 C29.92,42.56,29.81,42.46,29.86,42.6z"></path></g><g><path class="st1" d="M2.71,38.92c-1.33-1.15-1.66-2.43-1.69-3.76c-0.02-0.91,0.27-1.9,0.69-2.63l11.53,9.27 c1.9,1.48,3.91,1.04,5.17-0.13c0.06-0.06,0.07-0.04,0.06,0.04c-0.01,0.06-0.32,1.96-0.5,2.76c-0.55,2.37-3.83,3.79-6,2.08 L2.71,38.92z"></path></g><g><path class="st1" d="M21.22,26.31c-0.79,0.82-1.4,2.32-1.81,3.45c-0.31,0.84-0.72,1.16-1.3,1.24c-0.74,0.1-1.18-0.05-1.79-0.53 c-0.6-0.48-6.21-5.07-6.6-5.4c-0.11,0.12-3.3,2.97-3.3,2.97l8.99,7.26c0.66,0.48,1.36,0.98,2.24,0.86 c2.07-0.34,2.32-2.31,2.69-3.83c0.1-0.42,0.21-0.82,0.33-1.21c1.35-4.47,3.59-6.61,6.28-7.89c0.16-0.07,0.06,0.02,0.03,0.06 c-1,1.1-1.52,2.9-1.34,5.23c0.16,2.07,1.5,6.29,1.72,6.84c0.18,0.44,0.46,1.04,1.42,1.04h14.21c2.96,0,5.4-2.16,5.73-5.09 c0.01-0.13,0.03-0.12-0.13-0.05c-1.32,0.49-2.75,0.66-4.25,0.66c0,0-12.23,0.02-14.66,0c-2-0.02-2.4-2.67-2.44-3.31 c-0.3-3.82,1.58-5.51,1.58-5.51c0.96-1.08,1.99-1.04,2.24-1.02c0.01,0,0.09,0.01,0.02-0.04c-0.27-0.2-1.25-0.91-1.71-1.25 c-0.43-0.34-0.96-0.44-1.45-0.22l-2.77,1.17c-0.24,0.1-0.5-0.05-0.71-0.17c-0.16-0.09-0.37-0.14-0.6-0.03c0,0-2.87,1.5-3.87,1.95 c-0.84,0.38-1.57,0.08-2.19-0.58c-0.09-0.09-0.08-0.15-0.13,0.02c-0.12,0.32-0.18,0.66-0.18,1.01c0,0.9,0.31,1.77,1,2.23 c0.71,0.48,1.66,0.42,2.71,0.06C21.32,26.2,21.28,26.24,21.22,26.31z"></path></g><g><path class="st1" d="M13,15.22c1.56-1.43,2.17-3.97,1.53-6.11c-0.06-0.24-0.07-0.18-0.14-0.04c-0.55,0.93-1.64,2.08-2.46,2.78 L1.24,21.7C0.27,22.6-0.02,23.71,0,24.85c0,0,0,2.43,0,2.85c0,0.2,0.07,0.14,0.1-0.01c0.16-0.74,0.77-1.46,1.73-2.37 C2.16,25.01,13,15.22,13,15.22"></path></g><g><g><path class="st1" d="M31.99,55.1c-0.88-2.69-3.39-4.26-4.77-5.25c-0.57-0.41-2.92-2.03-3.9-3.61c-1.99-3.2-0.92-5.57-0.05-7.07 c0.22-0.4,0.18-0.26,0.18-0.07c0.03,1.62,0.94,3.46,3.42,5.04c2.75,1.73,6.02,4.48,5.32,11.11 C32.14,55.78,32.05,55.28,31.99,55.1z"></path></g><g><path class="st1" d="M19.19,55.94c-0.7,0.93-1.13,2.21-1.08,3.53c0.03,0.87,0.34,1.78,0.93,2.75c0.04,0.06,0.11,0.18-0.02,0.09 c-5.04-3.12-4.99-10.47-0.79-14.77c0.05-0.06,0.03,0.02,0.03,0.07c-0.3,2.68,2.12,4.92,3.4,6.05c1.02,0.9,2.75,2.2,4.08,3.18 c1.48,1.09,2.56,2.57,2.75,4.47c0.67-0.81,0.41-1.69,0.31-2.04c-0.64-2.28-3.56-4.01-4.35-4.66c-1.2-0.99-2.67-2.13-3.94-4.15 c-1.22-1.95-1.08-5.7,0.12-6.98c0.11-0.12,0.08-0.06,0.09,0.08c-0.03,1.94,1.25,3.05,2.07,3.96c1.1,1.22,5,3.95,5.98,4.87 c2.37,2.22,3.51,6.04,1.56,10.02c-0.9,1.84-2.41,4.07-6.75,4.57c-0.2,0.02-0.16-0.04-0.05-0.09c1.69-0.8,1.93-2.19,1.89-3.23 c-0.06-1.74-1.11-2.72-2.78-3.91C20.56,58.41,19.64,57.04,19.19,55.94z"></path></g></g><g><path class="st1" d="M13.96,41.07c2.15,1.52,4.73,0.04,5.19-2.66c0.14-0.66,0.4-1.98,0.42-2.03c0.01-0.07-0.01-0.06-0.05-0.02 c-1.58,1.29-2.93,1.04-4.51-0.07l-9.33-7.55c0,0-2.96,2.77-3.24,3.05L13.96,41.07z"></path></g><g><path class="st1" d="M0,33.54c0,0.23,0.07,0.15,0.12-0.04c0.24-1.1,1.25-2.04,2.18-3.01c0,0,0.08-0.1,1.4-1.32 c1.32-1.22,7.94-7.1,7.94-7.1c1.44-1.33,2.89-3.66,2.29-6.37c-0.04-0.18-0.06-0.1-0.11-0.03c-0.3,0.45-1.17,1.27-2.51,2.46 c-2.59,2.32-6.72,6-8.96,8.08c-0.52,0.48-1.33,1.2-1.65,1.71c-0.7,1.02-0.69,1.86-0.69,2.53L0,33.54z"></path></g></g><g><g><g><path class="st1" d="M63,47.58c-4.25,0-6.15-2.31-6.15-6.14v-9.51h2.55v9.26c0,2.86,1.08,4.23,3.66,4.23 c2.44,0,3.53-1.57,3.53-3.97v-9.51h2.37v9.31C68.96,45.22,67.02,47.58,63,47.58z"></path></g><g><path class="st1" d="M78.41,47.3v-7.39c0-1.25-0.43-1.96-1.67-1.96c-1.38,0-2.42,1.39-2.64,1.69v7.67h-2.42V36.12h2.37v1.5 c0.54-0.67,1.65-1.78,3.5-1.78c2.35,0,3.25,1.57,3.25,3.56v7.9L78.41,47.3L78.41,47.3z"></path></g><g><path class="st1" d="M84.72,34.39c-0.88,0-1.56-0.72-1.56-1.57c0-0.86,0.68-1.57,1.56-1.57c0.9,0,1.58,0.72,1.58,1.57 C86.3,33.67,85.62,34.39,84.72,34.39z M83.52,47.3V36.12h2.42V47.3H83.52z"></path></g><g><path class="st1" d="M92.79,44.2l2.64-8.08h2.46L93.85,47.3h-2.24l-4.11-11.18h2.6l2.64,8.08H92.79z"></path></g><g><path class="st1" d="M104.16,45.66c1.52,0,2.44-0.58,2.94-0.88l0.84,1.69c-0.63,0.39-1.81,1.11-3.93,1.11 c-3.57,0-5.47-2.49-5.47-5.94c0-3.42,2.19-5.8,5.18-5.8c3.21,0,4.86,2.38,4.52,6.24h-7.16 C101.17,44.11,102.08,45.66,104.16,45.66z M105.9,40.33c-0.04-1.41-0.63-2.61-2.24-2.61c-1.47,0-2.28,1.02-2.53,2.61H105.9z"></path></g><g><path class="st1" d="M116.45,38.31c-0.16-0.09-0.45-0.23-1.06-0.23c-1.47,0-2.3,1.55-2.51,1.96v7.25h-2.42V36.12h2.42v1.62 c0.45-0.78,1.38-1.89,2.83-1.89c0.75,0,1.13,0.16,1.33,0.28L116.45,38.31z"></path></g><g><path class="st1" d="M121.11,47.6c-1.79,0-3.01-0.6-3.68-1.09l0.88-1.75c0.41,0.3,1.45,0.92,2.69,0.92c1.24,0,1.99-0.46,1.99-1.3 c0-0.88-1.02-1.18-2.6-1.91c-1.6-0.74-2.69-1.57-2.69-3.35c0-1.94,1.47-3.28,3.8-3.28c1.85,0,2.96,0.69,3.39,0.97l-0.95,1.71 c-0.41-0.28-1.24-0.76-2.37-0.76c-1.11,0-1.65,0.46-1.65,1.22c0,0.9,0.95,1.2,2.17,1.71c1.76,0.74,3.16,1.55,3.16,3.44 C125.24,46.33,123.66,47.6,121.11,47.6z"></path></g><g><path class="st1" d="M128.59,34.39c-0.88,0-1.56-0.72-1.56-1.57c0-0.86,0.68-1.57,1.56-1.57c0.9,0,1.58,0.72,1.58,1.57 C130.17,33.67,129.49,34.39,128.59,34.39z M127.39,47.3V36.12h2.42V47.3H127.39z"></path></g><g><path class="st1" d="M131.62,37.99v-1.87h1.76v-3.21h2.39v3.21h2.64v1.87h-2.64v5.93c0,1.11,0.29,1.62,1.18,1.62 c0.66,0,1.24-0.32,1.45-0.46l0.68,1.85c-0.41,0.23-1.27,0.65-2.55,0.65c-2.24,0-3.14-1.25-3.14-3.25v-6.33L131.62,37.99 L131.62,37.99z"></path></g><g><path class="st1" d="M139.48,36.12h2.6l2.73,8.06h0.07l2.6-8.06h2.49l-4.57,12.49c-0.88,2.4-1.92,4.07-4.77,4.07 c-0.77,0-1.2-0.09-1.42-0.16l0.34-1.96c0.16,0.02,0.36,0.09,0.97,0.09c1.54,0,2.1-0.81,2.6-2.21l0.48-1.32L139.48,36.12z"></path></g><g><path class="st1" d="M159.32,47.58c-3.77,0-5.29-3.09-5.29-5.84c0-2.75,1.47-5.89,5.24-5.89c3.75,0,5.4,3.07,5.4,5.82 C164.68,44.39,163.07,47.58,159.32,47.58z M159.23,37.76c-1.94,0-2.67,1.69-2.67,3.9c0,2.22,0.84,3.97,2.78,3.97 c1.97,0,2.78-1.66,2.78-3.9C162.12,39.51,161.2,37.76,159.23,37.76z"></path></g><g><path class="st1" d="M169.52,47.3h-2.39v-9.31h-1.74v-1.87h1.74v-1.36c0-2.63,1.49-4.37,4.16-4.37c1.36,0,2.05,0.3,2.28,0.42 l-0.59,1.94c-0.16-0.07-0.68-0.3-1.47-0.3c-1.34,0-1.99,0.88-1.99,2.49v1.18h2.67v1.87h-2.67V47.3L169.52,47.3z"></path></g><g><path class="st1" d="M182.69,41.5h-1.56v5.8h-2.55V31.92h4.41c3.16,0,5.56,1.52,5.56,4.67C188.54,39.79,186.33,41.5,182.69,41.5z  M182.78,33.97h-1.65v5.47h1.58c2.28,0,3.25-0.95,3.25-2.79C185.97,34.99,185.06,33.97,182.78,33.97z"></path></g><g><path class="st1" d="M197.25,47.3v-7.39c0-1.25-0.43-1.96-1.67-1.96c-1.4,0-2.44,1.39-2.67,1.69v7.67h-2.39V30.68h2.39v6.9 c0.52-0.62,1.63-1.73,3.48-1.73c2.35,0,3.25,1.57,3.25,3.56v7.9L197.25,47.3L197.25,47.3z"></path></g><g><path class="st1" d="M207.12,47.58c-3.77,0-5.28-3.09-5.28-5.84c0-2.75,1.47-5.89,5.24-5.89c3.75,0,5.4,3.07,5.4,5.82 C212.48,44.39,210.87,47.58,207.12,47.58z M207.03,37.76c-1.94,0-2.67,1.69-2.67,3.9c0,2.22,0.84,3.97,2.78,3.97 c1.97,0,2.78-1.66,2.78-3.9C209.92,39.51,209,37.76,207.03,37.76z"></path></g><g><path class="st1" d="M219.78,45.66c1.52,0,2.44-0.58,2.94-0.88l0.84,1.69c-0.63,0.39-1.81,1.11-3.93,1.11 c-3.57,0-5.47-2.49-5.47-5.94c0-3.42,2.19-5.8,5.18-5.8c3.21,0,4.86,2.38,4.52,6.24h-7.16C216.8,44.11,217.7,45.66,219.78,45.66z  M221.52,40.33c-0.04-1.41-0.63-2.61-2.24-2.61c-1.47,0-2.28,1.02-2.53,2.61H221.52z"></path></g><g><path class="st1" d="M232.82,47.3v-7.39c0-1.25-0.43-1.96-1.67-1.96c-1.38,0-2.42,1.39-2.64,1.69v7.67h-2.42V36.12h2.37v1.5 c0.54-0.67,1.65-1.78,3.5-1.78c2.35,0,3.25,1.57,3.25,3.56v7.9L232.82,47.3L232.82,47.3z"></path></g><g><path class="st1" d="M239.13,34.39c-0.88,0-1.56-0.72-1.56-1.57c0-0.86,0.68-1.57,1.56-1.57c0.9,0,1.58,0.72,1.58,1.57 C240.71,33.67,240.03,34.39,239.13,34.39z M237.93,47.3V36.12h2.42V47.3H237.93z"></path></g><g><path class="st1" d="M241.9,36.12h2.71c0,0,2.31,3.51,2.28,3.51l2.05-3.51h2.49c0,0-3.39,5.22-3.41,5.22l3.91,5.96h-2.71 l-2.62-4.09l-2.42,4.09h-2.46l3.75-5.8L241.9,36.12z"></path></g></g><g><g><path class="st1" d="M255.93,36.12c-1.56,0-2.91,1.2-2.91,2.89c0,1.71,1.35,2.91,2.91,2.91c1.54,0,2.89-1.2,2.89-2.91 C258.82,37.31,257.47,36.12,255.93,36.12z M255.93,41.46c-1.32,0-2.37-1.09-2.37-2.45c0-1.35,1.05-2.44,2.37-2.44 s2.35,1.09,2.35,2.44C258.29,40.37,257.25,41.46,255.93,41.46z"></path></g><g><path class="st1" d="M256.49,39v-0.03c0.39-0.08,0.64-0.38,0.64-0.79c0-0.66-0.55-0.82-1.1-0.82h-1.24v3.24h0.54v-1.42h0.68 c0.19,0,0.34,0.11,0.42,0.27c0.1,0.16,0.1,0.37,0.11,0.6v0.55h0.53v-0.55c0-0.16-0.02-0.33-0.03-0.39 C257.02,39.49,256.95,39.07,256.49,39z M256.01,38.76h-0.68v-0.98h0.68c0.44,0,0.56,0.21,0.56,0.48 C256.57,38.54,256.43,38.76,256.01,38.76z"></path></g></g></g></svg>