<svg class="MuiSvgIcon-root jss23 jss22" focusable="false" viewBox="0 0 102 102" aria-hidden="true"
    role="img" overflow="visible" preserveAspectRatio="none" xml:space="preserve" y="0" x="0"
    id="prefix__Layer_1_1559572416341" width="80" height="80"><g transform="translate(1 1)"><style>.prefix__st0_1559572416341{display:none}.prefix__st1_1559572416341{display:inline}.prefix__st10_1559572416341,.prefix__st5_1559572416341{fill:none;stroke:#101b2b;stroke-width:2.5;stroke-linecap:round;stroke-linejoin:round}.prefix__st10_1559572416341{stroke-width:2}.prefix__st13_1559572416341{fill:#111c2c}.prefix__st14_1559572416341{fill:none;stroke:#f0f;stroke-width:.2;stroke-miterlimit:10}</style><title>Journey icon</title><g class="prefix__st0_1559572416341" id="prefix__icon__x28_Workable_x29__1559572416341"><g class="prefix__st1_1559572416341"><g stroke="#101b2b" stroke-width="2.5" stroke-linecap="round" stroke-linejoin="round" stroke-miterlimit="10"><path d="M28.8 62.5c.6-16.5 17.3-20.5 17.3-34 0-10.3-9-18.5-19.5-17.1-9 1.1-15.7 9.3-15 18.4.9 12.4 16.7 16.7 17.2 32.7h0z" vector-effect="non-scaling-stroke" fill="#de3927"></path><path d="M35.7 28.7c0 3.8-3.1 6.8-6.8 6.8-3.8 0-6.8-3.1-6.8-6.8 0-3.8 3.1-6.8 6.8-6.8 3.7-.1 6.8 3 6.8 6.8z" vector-effect="non-scaling-stroke" fill="#fff"></path></g><path d="M37.1 58h35.4c3.4 0 6.2 2.8 6.2 6.2 0 3.4-2.8 6.2-6.2 6.2h-27c-3.4 0-6.2 2.8-6.2 6.2 0 3.4 2.8 6.2 6.2 6.2h4.3" vector-effect="non-scaling-stroke" fill="none" stroke="#101b2b" stroke-width="2.5" stroke-linecap="round" stroke-linejoin="round" stroke-miterlimit="10"></path><path class="prefix__st5_1559572416341" vector-effect="non-scaling-stroke" d="M47 82.8h2"></path><path vector-effect="non-scaling-stroke" fill="none" stroke="#101b2b" stroke-width="2.5" stroke-linecap="round" stroke-linejoin="round" stroke-dasharray="4.3366 6.5049" d="M55.5 82.8h29.2"></path><path class="prefix__st5_1559572416341" vector-effect="non-scaling-stroke" d="M88 82.8h2"></path></g></g><g class="prefix__st0_1559572416341" id="prefix__Layer_5_1559572416341"><g class="prefix__st1_1559572416341"><g stroke="#101b2b" stroke-width="2" stroke-linecap="round" stroke-linejoin="round" stroke-miterlimit="10"><path d="M28.8 62.5c.6-16.5 17.3-20.5 17.3-34 0-10.3-9-18.5-19.5-17.1-9 1.1-15.7 9.3-15 18.4.9 12.4 16.7 16.7 17.2 32.7h0z" vector-effect="non-scaling-stroke" fill="#de3927"></path><path d="M35.7 28.7c0 3.8-3.1 6.8-6.8 6.8-3.8 0-6.8-3.1-6.8-6.8 0-3.8 3.1-6.8 6.8-6.8 3.7-.1 6.8 3 6.8 6.8z" vector-effect="non-scaling-stroke" fill="#fff"></path></g><path d="M37.1 58h35.4c3.4 0 6.2 2.8 6.2 6.2 0 3.4-2.8 6.2-6.2 6.2h-27c-3.4 0-6.2 2.8-6.2 6.2 0 3.4 2.8 6.2 6.2 6.2h4.3" vector-effect="non-scaling-stroke" fill="none" stroke="#101b2b" stroke-width="2" stroke-linecap="round" stroke-linejoin="round" stroke-miterlimit="10"></path><path class="prefix__st10_1559572416341" vector-effect="non-scaling-stroke" d="M47 82.8h2"></path><path vector-effect="non-scaling-stroke" fill="none" stroke="#101b2b" stroke-width="2" stroke-linecap="round" stroke-linejoin="round" stroke-dasharray="4.3366 6.5049" d="M55.5 82.8h29.2"></path><path class="prefix__st10_1559572416341" vector-effect="non-scaling-stroke" d="M88 82.8h2"></path></g></g><g id="prefix__icon_1559572416341"><path d="M39.9 15.9c-3-2.7-6.9-4.2-11-4.2-.7 0-1.4 0-2.2.1-8.7 1.1-15.2 9.1-14.5 17.8.4 5.7 4 9.6 7.7 13.8l.1.1c3.3 3.7 6.7 7.6 8.4 13l.5 1.6.5-1.6c1.7-5.4 5.1-9.3 8.4-13l.3-.3c3.9-4.4 7.7-8.6 7.7-14.8-.2-4.8-2.3-9.4-5.9-12.5zm-3.8 12.8c0 4-3.3 7.3-7.3 7.3s-7.3-3.3-7.3-7.3 3.3-7.3 7.3-7.3 7.3 3.3 7.3 7.3z" vector-effect="non-scaling-stroke" fill="#dd3826"></path><path d="M18.7 44.4c4.3 4.8 8.8 9.9 9.1 18 0 .5.5 1 1 1s1-.4 1-1c.3-8.2 4.8-13.2 9.1-18.1 4.2-4.7 8.2-9.1 8.2-16 0-5.2-2.3-10.2-6.2-13.7s-9.2-5.1-14.5-4.4c-9.4 1.3-16.5 10-15.8 19.6.4 6.1 4.2 10.2 8.1 14.6zm8-32.1c.7-.1 1.4-.1 2.1-.1 4 0 7.7 1.4 10.7 4.1C43 19.4 45 23.8 45 28.5c0 6.1-3.7 10.2-7.7 14.6-3.3 3.7-6.9 7.7-8.6 13.3-1.7-5.6-5.3-9.6-8.6-13.3-3.7-4.1-7.2-8-7.6-13.5-.5-8.5 5.8-16.2 14.2-17.3z" class="prefix__st13_1559572416341" vector-effect="non-scaling-stroke"></path><path d="M28.8 36.5c4.3 0 7.8-3.5 7.8-7.8s-3.5-7.8-7.8-7.8-7.8 3.5-7.8 7.8 3.5 7.8 7.8 7.8zm0-13.7c3.2 0 5.8 2.6 5.8 5.8s-2.6 5.8-5.8 5.8-5.8-2.5-5.8-5.7 2.6-5.9 5.8-5.9zM36.1 58c0 .6.4 1 1 1h35.4c2.9 0 5.2 2.3 5.2 5.2 0 2.9-2.3 5.2-5.2 5.2h-27c-4 0-7.2 3.2-7.2 7.2s3.2 7.2 7.2 7.2h4.2c.6 0 1-.4 1-1s-.4-1-1-1h-4.2c-2.9 0-5.2-2.3-5.2-5.2s2.3-5.2 5.2-5.2h27c4 0 7.2-3.2 7.2-7.2S76.5 57 72.5 57H37.1c-.6 0-1 .5-1 1zM76.2 82.8c0 .6.4 1 1 1h4.3c.6 0 1-.4 1-1s-.4-1-1-1h-4.3c-.6 0-1 .4-1 1zM66.3 81.8c-.6 0-1 .4-1 1s.4 1 1 1h4.3c.6 0 1-.4 1-1s-.4-1-1-1h-4.3zM55.5 81.8c-.6 0-1 .4-1 1s.4 1 1 1h4.3c.6 0 1-.4 1-1s-.4-1-1-1h-4.3zM90 81.8h-2c-.6 0-1 .4-1 1s.4 1 1 1h2c.6 0 1-.4 1-1s-.4-1-1-1z" class="prefix__st13_1559572416341" vector-effect="non-scaling-stroke"></path></g><g class="prefix__st0_1559572416341" id="prefix__Guides_1559572416341"><g class="prefix__st1_1559572416341"><circle r="32.5" cy="50" cx="50" class="prefix__st14_1559572416341" vector-effect="non-scaling-stroke"></circle><path class="prefix__st14_1559572416341" vector-effect="non-scaling-stroke" d="M50 100V0M14.6 85.4l70.8-70.8M14.6 14.6l70.8 70.8M17.5 90V10M82.5 90V10M0 50h100M10 82.5h80M10 17.5h80M10 10h80v80H10z"></path></g></g></g></svg>